<?xml version="1.0" encoding="UTF-8"?>
<svg id="Layer_2" data-name="Layer 2" xmlns="http://www.w3.org/2000/svg" viewBox="0 0 26.32 26.32">
  <defs>
    <style>
      .cls-1 {
        fill: #fff;
        fill-rule: evenodd;
      }
    </style>
  </defs>
  <g id="Layer_1-2" data-name="Layer 1">
    <g id="Page-1">
      <g id="add">
        <path id="Combined-Shape" class="cls-1" d="M13.16,0c7.27,0,13.16,5.89,13.16,13.16s-5.89,13.16-13.16,13.16S0,20.43,0,13.16,5.89,0,13.16,0Zm0,17.43c-.91,0-1.64,.74-1.64,1.64s.74,1.64,1.64,1.64,1.64-.74,1.64-1.64-.74-1.64-1.64-1.64Zm-.22-11.68c-1.28,0-2.36,.35-3.23,1.04-1.03,.83-1.55,2.06-1.55,3.69h2.8v-.02c0-.62,.13-1.13,.39-1.53,.36-.53,.95-.8,1.75-.8,.5,0,.92,.13,1.27,.39,.44,.36,.65,.91,.65,1.64,0,.46-.11,.87-.34,1.23-.19,.32-.49,.64-.9,.95-.87,.6-1.44,1.19-1.7,1.77-.22,.49-.34,1.26-.34,2.31h2.63c0-.7,.09-1.22,.28-1.57,.15-.29,.46-.59,.93-.91,.82-.61,1.41-1.18,1.75-1.7,.42-.62,.63-1.35,.63-2.18,0-1.73-.7-2.95-2.11-3.67-.85-.44-1.83-.65-2.95-.65Z"/>
      </g>
    </g>
  </g>
</svg>