<?xml version="1.0" encoding="UTF-8"?>
<svg id="Layer_2" data-name="Layer 2" xmlns="http://www.w3.org/2000/svg" viewBox="0 0 24.69 24.31">
  <defs>
    <style>
      .cls-1 {
        fill: #fff;
      }
    </style>
  </defs>
  <g id="Layer_1-2" data-name="Layer 1">
    <path class="cls-1" d="M24.49,3.41l-7.27,19.3c-.36,.98-1.3,1.63-2.35,1.61h0c-1.03,0-1.95-.66-2.29-1.64l-2.47-6.78,1.91-1.85,3.09-2.98c.49-.47,.5-1.25,.03-1.73s-1.25-.5-1.73-.03l-3.09,2.98-1.96,1.86L1.7,11.43c-1.28-.41-1.99-1.78-1.58-3.07,.25-.78,.87-1.38,1.66-1.6L21.37,.17c1.26-.49,2.67,.13,3.16,1.38,.23,.6,.22,1.26-.03,1.85h0Z"/>
  </g>
</svg>